<svg xmlns="http://www.w3.org/2000/svg" width="256" height="256" viewBox="0 0 100 100"><rect width="100" height="100" rx="20" fill="#ff6600"></rect><path fill="#fff" d="M84.92 37.94L84.92 37.94L84.92 81.86L75.08 81.86L75.08 36.62Q75.08 30.74 73.40 28.34Q71.72 25.94 65.54 25.94Q59.36 25.94 57.14 28.64Q54.92 31.34 54.92 36.38L54.92 36.38L54.92 81.86L45.08 81.86L45.08 36.62Q45.08 30.74 43.40 28.34Q41.72 25.94 35.54 25.94Q29.36 25.94 27.14 28.64Q24.92 31.34 24.92 36.38L24.92 36.38L24.92 81.86L15.08 81.86L15.08 19.46L20.48 19.46L22.04 25.34Q24.20 22.10 27.62 20.36Q31.04 18.62 33.32 18.38Q35.60 18.14 39.20 18.14L39.20 18.14Q48.92 18.14 52.52 24.74L52.52 24.74Q57.32 18.14 69.20 18.14L69.20 18.14Q79.16 18.14 82.28 24.26L82.28 24.26Q84.92 29.54 84.92 37.94Z"></path></svg>